<svg viewBox="0 0 205.6 205.6">
  <path d="M102.837.04c-27.945 0-31.4.102-42.375.61-10.975.508-18.494 2.236-24.998 4.776-6.808 2.643-12.5 6.098-18.19 11.89s-9.247 11.381-11.89 18.19C2.845 42.009 1.118 49.529.61 60.504.102 71.479 0 74.934 0 102.879s.102 31.4.61 42.375c.508 10.975 2.235 18.393 4.776 24.998 2.642 6.809 6.097 12.5 11.89 18.19 5.69 5.69 11.482 9.248 18.189 11.89 6.504 2.54 14.023 4.268 24.998 4.776 10.975.508 14.43.61 42.375.61 27.946 0 31.4-.102 42.376-.61 10.974-.508 18.393-2.236 24.998-4.776 6.808-2.642 12.499-6.097 18.19-11.89 5.69-5.69 9.247-11.483 11.889-18.19 2.54-6.503 4.268-14.023 4.776-24.998.508-10.975.61-14.43.61-42.375s-.102-31.4-.61-42.375c-.508-10.975-2.236-18.393-4.776-24.998-2.642-6.809-6.097-12.5-11.89-18.19-5.69-5.69-11.482-9.247-18.19-11.89-6.503-2.54-14.023-4.268-24.997-4.776C134.238.142 130.68.04 102.837.04zm0 18.495c27.438 0 30.69.102 41.563.61 10.06.508 15.446 2.134 19.104 3.557 4.776 1.829 8.231 4.064 11.788 7.723 3.556 3.556 5.792 7.011 7.723 11.787 1.422 3.659 3.048 9.045 3.556 19.105.509 10.873.61 14.125.61 41.562 0 27.437-.101 30.689-.61 41.562-.406 10.06-2.134 15.446-3.556 19.105-1.83 4.776-4.065 8.23-7.723 11.787-3.557 3.557-7.012 5.793-11.788 7.723-3.658 1.423-9.044 3.049-19.104 3.557-10.874.508-14.125.61-41.563.61-27.437 0-30.689-.102-41.562-.61-10.06-.406-15.446-2.134-19.104-3.557-4.776-1.829-8.231-4.064-11.788-7.723-3.557-3.556-5.792-7.011-7.723-11.787-1.423-3.659-3.049-9.045-3.557-19.105-.508-10.975-.61-14.226-.61-41.664 0-27.437.102-30.689.61-41.562.508-9.958 2.134-15.446 3.557-19.003 1.83-4.776 4.065-8.23 7.723-11.787 3.557-3.557 7.012-5.793 11.788-7.723 3.658-1.423 9.044-3.049 19.104-3.557 10.873-.508 14.125-.61 41.562-.61z"/>
  <path d="M102.837 137.023c-18.9 0-34.245-15.344-34.245-34.246 0-18.9 15.344-34.245 34.245-34.245 18.902 0 34.246 15.344 34.246 34.245 0 18.902-15.344 34.246-34.246 34.246zm0-86.986c-29.164 0-52.841 23.576-52.841 52.74 0 29.165 23.677 52.74 52.74 52.74 29.164 0 52.74-23.677 52.74-52.74.102-29.164-23.474-52.74-52.639-52.74zm67.171-2.134A12.273 12.273 0 0 1 157.712 60.2c-6.809 0-12.296-5.487-12.296-12.296s5.487-12.296 12.296-12.296a12.273 12.273 0 0 1 12.296 12.296z"/>
</svg>
